<svg width="25" height="25" viewBox="0 0 25 25" fill="none" xmlns="http://www.w3.org/2000/svg">
<path fill-rule="evenodd" clip-rule="evenodd" d="M13.3533 25H1.37981C0.617537 25 0 24.3821 0 23.6201V1.3798C0 0.617633 0.617634 0 1.37981 0H23.6203C24.3823 0 25 0.617633 25 1.3798V23.6201C25 24.3822 24.3822 25 23.6203 25H17.2496V15.3186H20.4992L20.9858 11.5456H17.2496V9.1368C17.2496 8.04442 17.553 7.3 19.1194 7.3L21.1174 7.29913V3.92453C20.7718 3.87855 19.5858 3.77582 18.206 3.77582C15.3254 3.77582 13.3533 5.53413 13.3533 8.76313V11.5456H10.0954V15.3186H13.3533V25Z" fill="#4460A0"/>
</svg>
