<svg width="25" height="25" viewBox="0 0 25 25" fill="none" xmlns="http://www.w3.org/2000/svg">
<path d="M18.75 1.5625H6.25C3.66117 1.5625 1.5625 3.66117 1.5625 6.25V18.75C1.5625 21.3388 3.66117 23.4375 6.25 23.4375H18.75C21.3388 23.4375 23.4375 21.3388 23.4375 18.75V6.25C23.4375 3.66117 21.3388 1.5625 18.75 1.5625Z" fill="url(#paint0_radial_7_1179)"/>
<path d="M18.75 1.5625H6.25C3.66117 1.5625 1.5625 3.66117 1.5625 6.25V18.75C1.5625 21.3388 3.66117 23.4375 6.25 23.4375H18.75C21.3388 23.4375 23.4375 21.3388 23.4375 18.75V6.25C23.4375 3.66117 21.3388 1.5625 18.75 1.5625Z" fill="url(#paint1_radial_7_1179)"/>
<path d="M18.75 1.5625H6.25C3.66117 1.5625 1.5625 3.66117 1.5625 6.25V18.75C1.5625 21.3388 3.66117 23.4375 6.25 23.4375H18.75C21.3388 23.4375 23.4375 21.3388 23.4375 18.75V6.25C23.4375 3.66117 21.3388 1.5625 18.75 1.5625Z" fill="url(#paint2_radial_7_1179)"/>
<path d="M17.9688 8.20312C17.9688 8.85031 17.4441 9.375 16.7969 9.375C16.1497 9.375 15.625 8.85031 15.625 8.20312C15.625 7.55591 16.1497 7.03125 16.7969 7.03125C17.4441 7.03125 17.9688 7.55591 17.9688 8.20312Z" fill="white"/>
<path fill-rule="evenodd" clip-rule="evenodd" d="M12.5 16.4062C14.6573 16.4062 16.4062 14.6573 16.4062 12.5C16.4062 10.3427 14.6573 8.59375 12.5 8.59375C10.3427 8.59375 8.59375 10.3427 8.59375 12.5C8.59375 14.6573 10.3427 16.4062 12.5 16.4062ZM12.5 14.8438C13.7945 14.8438 14.8438 13.7945 14.8438 12.5C14.8438 11.2055 13.7945 10.1562 12.5 10.1562C11.2055 10.1562 10.1562 11.2055 10.1562 12.5C10.1562 13.7945 11.2055 14.8438 12.5 14.8438Z" fill="white"/>
<path fill-rule="evenodd" clip-rule="evenodd" d="M4.6875 12.1875C4.6875 9.56227 4.6875 8.24961 5.19841 7.24692C5.64781 6.36491 6.36491 5.64781 7.24692 5.19841C8.24961 4.6875 9.56227 4.6875 12.1875 4.6875H12.8125C15.4377 4.6875 16.7504 4.6875 17.753 5.19841C18.6351 5.64781 19.3522 6.36491 19.8016 7.24692C20.3125 8.24961 20.3125 9.56227 20.3125 12.1875V12.8125C20.3125 15.4377 20.3125 16.7504 19.8016 17.753C19.3522 18.6351 18.6351 19.3522 17.753 19.8016C16.7504 20.3125 15.4377 20.3125 12.8125 20.3125H12.1875C9.56227 20.3125 8.24961 20.3125 7.24692 19.8016C6.36491 19.3522 5.64781 18.6351 5.19841 17.753C4.6875 16.7504 4.6875 15.4377 4.6875 12.8125V12.1875ZM12.1875 6.25H12.8125C14.1509 6.25 15.0607 6.25122 15.764 6.30867C16.4491 6.36464 16.7994 6.46609 17.0437 6.5906C17.6317 6.89021 18.1098 7.36827 18.4094 7.95625C18.5339 8.20062 18.6354 8.55094 18.6913 9.23602C18.7487 9.9393 18.75 10.8491 18.75 12.1875V12.8125C18.75 14.1509 18.7487 15.0607 18.6913 15.764C18.6354 16.4491 18.5339 16.7994 18.4094 17.0437C18.1098 17.6317 17.6317 18.1098 17.0437 18.4094C16.7994 18.5339 16.4491 18.6354 15.764 18.6913C15.0607 18.7487 14.1509 18.75 12.8125 18.75H12.1875C10.8491 18.75 9.9393 18.7487 9.23602 18.6913C8.55094 18.6354 8.20062 18.5339 7.95625 18.4094C7.36827 18.1098 6.89021 17.6317 6.5906 17.0437C6.46609 16.7994 6.36464 16.4491 6.30867 15.764C6.25122 15.0607 6.25 14.1509 6.25 12.8125V12.1875C6.25 10.8491 6.25122 9.9393 6.30867 9.23602C6.36464 8.55094 6.46609 8.20062 6.5906 7.95625C6.89021 7.36827 7.36827 6.89021 7.95625 6.5906C8.20062 6.46609 8.55094 6.36464 9.23602 6.30867C9.9393 6.25122 10.8491 6.25 12.1875 6.25Z" fill="white"/>
<defs>
<radialGradient id="paint0_radial_7_1179" cx="0" cy="0" r="1" gradientUnits="userSpaceOnUse" gradientTransform="translate(9.375 17.9688) rotate(-55.3758) scale(19.9372)">
<stop stop-color="#B13589"/>
<stop offset="0.79309" stop-color="#C62F94"/>
<stop offset="1" stop-color="#8A3AC8"/>
</radialGradient>
<radialGradient id="paint1_radial_7_1179" cx="0" cy="0" r="1" gradientUnits="userSpaceOnUse" gradientTransform="translate(8.59375 24.2188) rotate(-65.1363) scale(17.6517)">
<stop stop-color="#E0E8B7"/>
<stop offset="0.444662" stop-color="#FB8A2E"/>
<stop offset="0.71474" stop-color="#E2425C"/>
<stop offset="1" stop-color="#E2425C" stop-opacity="0"/>
</radialGradient>
<radialGradient id="paint2_radial_7_1179" cx="0" cy="0" r="1" gradientUnits="userSpaceOnUse" gradientTransform="translate(0.390625 2.34375) rotate(-8.1301) scale(30.3835 6.49872)">
<stop offset="0.156701" stop-color="#406ADC"/>
<stop offset="0.467799" stop-color="#6A45BE"/>
<stop offset="1" stop-color="#6A45BE" stop-opacity="0"/>
</radialGradient>
</defs>
</svg>
