<svg width="25" height="25" viewBox="0 0 25 25" fill="none" xmlns="http://www.w3.org/2000/svg">
<path fill-rule="evenodd" clip-rule="evenodd" d="M12.4964 0C5.60534 0 0 5.60691 0 12.4999C0 15.2336 0.881584 17.7688 2.38021 19.8265L0.822703 24.4707L5.62731 22.9352C7.60344 24.2432 9.96168 25 12.5036 25C19.3947 25 25 19.3929 25 12.5001C25 5.60713 19.3947 0.000206629 12.5036 0.000206629L12.4964 0ZM9.00669 6.34939C8.76431 5.76889 8.58062 5.74691 8.21342 5.73198C8.0884 5.72472 7.94907 5.71747 7.7946 5.71747C7.3169 5.71747 6.81743 5.85704 6.51617 6.16565C6.14898 6.54041 5.23793 7.41478 5.23793 9.20792C5.23793 11.0011 6.54561 12.7353 6.72185 12.9779C6.90555 13.2202 9.27124 16.9533 12.9444 18.4747C15.8168 19.6652 16.6692 19.5548 17.323 19.4153C18.2779 19.2095 19.4755 18.5038 19.7768 17.6516C20.078 16.799 20.078 16.0714 19.9897 15.9171C19.9016 15.7628 19.659 15.6749 19.2918 15.4909C18.9246 15.3072 17.1393 14.4253 16.8013 14.3078C16.4706 14.1829 16.1548 14.2271 15.9052 14.5799C15.5525 15.0722 15.2073 15.572 14.928 15.8732C14.7076 16.1084 14.3475 16.1378 14.0464 16.0127C13.6423 15.8439 12.5111 15.4468 11.1151 14.2049C10.0351 13.2424 9.3005 12.0447 9.08756 11.6846C8.87442 11.3173 9.06556 11.1039 9.23433 10.9056C9.41803 10.6777 9.59429 10.5162 9.77799 10.303C9.96169 10.09 10.0645 9.97963 10.1821 9.72972C10.3071 9.48727 10.2188 9.23736 10.1307 9.05361C10.0425 8.86986 9.30795 7.07672 9.00669 6.34939Z" fill="#67C15E"/>
</svg>
