<svg width="39" height="39" viewBox="0 0 39 39" fill="none" xmlns="http://www.w3.org/2000/svg">
<path d="M19.5 38.25C9.14437 38.25 0.75 29.8556 0.75 19.5C0.75 9.14437 9.14437 0.75 19.5 0.75C29.8556 0.75 38.25 9.14437 38.25 19.5C38.25 29.8556 29.8556 38.25 19.5 38.25ZM19.5 34.5C23.4782 34.5 27.2936 32.9196 30.1066 30.1066C32.9196 27.2936 34.5 23.4782 34.5 19.5C34.5 15.5218 32.9196 11.7064 30.1066 8.8934C27.2936 6.08035 23.4782 4.5 19.5 4.5C15.5218 4.5 11.7064 6.08035 8.8934 8.8934C6.08035 11.7064 4.5 15.5218 4.5 19.5C4.5 23.4782 6.08035 27.2936 8.8934 30.1066C11.7064 32.9196 15.5218 34.5 19.5 34.5ZM17.6306 27L9.675 19.0444L12.3262 16.3931L17.6306 21.6975L28.2356 11.0906L30.8887 13.7419L17.6306 27Z" fill="#459150"/>
</svg>
