<svg width="45" height="45" viewBox="0 0 45 45" fill="none" xmlns="http://www.w3.org/2000/svg">
<path d="M5.625 19.1891L7.02602 19.068C6.96114 18.3177 6.31674 17.7517 5.56438 17.7842C4.812 17.8166 4.21875 18.436 4.21875 19.1891H5.625ZM37.9427 22.6076L36.6199 30.2571L39.3913 30.7365L40.7141 23.0869L37.9427 22.6076ZM24.8344 39.8437H16.1182V42.6562H24.8344V39.8437ZM14.4093 38.2734L12.8865 20.6621L10.0845 20.9044L11.6073 38.5157L14.4093 38.2734ZM36.6199 30.2571C35.6696 35.7519 30.7149 39.8437 24.8344 39.8437V42.6562C32.0085 42.6562 38.1952 37.6519 39.3913 30.7365L36.6199 30.2571ZM24.8527 9.56277L23.6102 17.1463L26.3857 17.6011L27.6283 10.0175L24.8527 9.56277ZM13.477 19.2105L16.1746 16.886L14.3387 14.7554L11.641 17.08L13.477 19.2105ZM21.0825 9.3226L21.9744 5.88413L19.2521 5.17793L18.3601 8.6164L21.0825 9.3226ZM23.3216 5.20951L23.5935 5.29683L24.4538 2.61912L24.1819 2.5318L23.3216 5.20951ZM19.7316 12.78C20.3164 11.685 20.7707 10.5251 21.0825 9.3226L18.3601 8.6164C18.1045 9.602 17.7319 10.5542 17.2508 11.4548L19.7316 12.78ZM23.5935 5.29683C24.168 5.4814 24.576 5.92516 24.7101 6.44219L27.4326 5.73601C27.0473 4.25097 25.9106 3.08714 24.4538 2.61912L23.5935 5.29683ZM21.9744 5.88413C22.0402 5.63099 22.2231 5.39836 22.4996 5.26507L21.2786 2.7314C20.2811 3.21203 19.5319 4.09925 19.2521 5.17793L21.9744 5.88413ZM22.4996 5.26507C22.7522 5.14332 23.0496 5.12213 23.3216 5.20951L24.1819 2.5318C23.2262 2.22477 22.1835 2.29537 21.2786 2.7314L22.4996 5.26507ZM26.5382 20.5954H36.2528V17.7829H26.5382V20.5954ZM8.84777 40.1364L7.02602 19.068L4.22398 19.3102L6.04573 40.3787L8.84777 40.1364ZM7.03125 40.3363V19.1891H4.21875V40.3363H7.03125ZM6.04573 40.3787C6.021 40.0927 6.24649 39.8437 6.53758 39.8437V42.6562C7.89878 42.6562 8.96479 41.4898 8.84777 40.1364L6.04573 40.3787ZM27.6283 10.0175C27.8617 8.59229 27.7952 7.13395 27.4326 5.73601L24.7101 6.44219C24.9744 7.46105 25.023 8.52397 24.8527 9.56277L27.6283 10.0175ZM16.1182 39.8437C15.2296 39.8437 14.4863 39.1631 14.4093 38.2734L11.6073 38.5157C11.8097 40.8566 13.7676 42.6562 16.1182 42.6562V39.8437ZM16.1746 16.886C17.4493 15.7875 18.8235 14.48 19.7316 12.78L17.2508 11.4548C16.6013 12.6706 15.5672 13.6967 14.3387 14.7554L16.1746 16.886ZM40.7141 23.0869C41.1928 20.3184 39.0639 17.7829 36.2528 17.7829V20.5954C37.3151 20.5954 38.1247 21.5548 37.9427 22.6076L40.7141 23.0869ZM6.53758 39.8437C6.81173 39.8437 7.03125 40.0657 7.03125 40.3363H4.21875C4.21875 41.6162 5.25542 42.6562 6.53758 42.6562V39.8437ZM23.6102 17.1463C23.3145 18.9518 24.7061 20.5954 26.5382 20.5954V17.7829C26.4446 17.7829 26.3698 17.6981 26.3857 17.6011L23.6102 17.1463ZM12.8865 20.6621C12.8389 20.1109 13.0589 19.5709 13.477 19.2105L11.641 17.08C10.5379 18.0306 9.95904 19.4537 10.0845 20.9044L12.8865 20.6621Z" fill="#459050"/>
</svg>
