<svg width="20px" height="20px" viewBox="0 0 13 13" fill="none" xmlns="http://www.w3.org/2000/svg">
<path fill-rule="evenodd" clip-rule="evenodd" d="M1.54231 0.646631C2.30867 -0.139638 3.57631 0.00767693 4.2098 0.880824L4.99794 1.96708C5.50462 2.66548 5.46181 3.63644 4.85712 4.25688L4.70406 4.41389L4.70272 4.41742C4.69463 4.43957 4.67419 4.51009 4.69431 4.64393C4.73603 4.92137 4.95581 5.48518 5.84812 6.40067C6.74319 7.31896 7.28612 7.53543 7.53769 7.57526C7.64625 7.59244 7.703 7.57751 7.72112 7.5713L7.9765 7.30928C8.52262 6.74894 9.37406 6.63858 10.0606 7.02369L11.2547 7.69342C12.2752 8.26588 12.5128 9.66625 11.6972 10.503L10.8094 11.414C10.5322 11.6983 10.1544 11.9409 9.6875 11.9858C8.54756 12.0955 5.90687 11.9527 3.1385 9.11243C0.555272 6.46207 0.0645345 4.15683 0.00250322 3.03053C-0.0281468 2.47404 0.226397 1.99672 0.56131 1.65312L1.54231 0.646631ZM3.44431 1.40825C3.12409 0.966897 2.54882 0.940561 2.22205 1.27582L1.24105 2.2823C1.03393 2.4948 0.92526 2.73836 0.938653 2.98156C0.989303 3.90114 1.39567 5.99771 3.81824 8.4832C6.35837 11.0893 8.6985 11.1629 9.59537 11.0767C9.77275 11.0596 9.95519 10.9637 10.1296 10.7848L11.0174 9.87388C11.4004 9.48091 11.3001 8.77299 10.787 8.48527L9.59294 7.81548C9.2725 7.63574 8.89712 7.69129 8.65625 7.93845L8.37156 8.2305L8.04212 7.92554C8.37156 8.2305 8.37075 8.23141 8.37075 8.23141L8.36981 8.23226L8.368 8.23415L8.364 8.23811L8.35506 8.2467C8.34862 8.25279 8.34119 8.25943 8.33281 8.26661C8.316 8.28099 8.29519 8.29737 8.27025 8.31461C8.22012 8.3492 8.15344 8.38727 8.06912 8.41967C7.89662 8.486 7.66881 8.52157 7.38744 8.47705C6.83894 8.39025 6.12012 8.00636 5.16837 7.02984C4.21376 6.05046 3.84841 5.31976 3.76672 4.77638C3.72514 4.49982 3.75841 4.27837 3.81947 4.11114C3.8495 4.02889 3.88496 3.96332 3.91766 3.91352C3.93397 3.88869 3.94951 3.8679 3.96325 3.85098C3.97012 3.84252 3.97654 3.83503 3.98239 3.82848L3.99071 3.81935L3.99453 3.81531L3.99634 3.81342L3.99722 3.8125C3.99722 3.8125 3.99809 3.81162 4.33038 4.11919L3.99809 3.81161L4.17735 3.62769C4.45581 3.342 4.49627 2.85817 4.23243 2.49452L3.44431 1.40825Z" fill="#1C274C"/>
</svg>
