<svg width="15" height="15" viewBox="0 0 15 15" fill="none" xmlns="http://www.w3.org/2000/svg">
<path fill-rule="evenodd" clip-rule="evenodd" d="M2.94856 1.93244C3.71492 1.1256 4.98256 1.27677 5.61605 2.17276L6.40419 3.28743C6.91087 4.0041 6.86806 5.00046 6.26337 5.63713L6.11031 5.79824C6.10988 5.79936 6.10943 5.80056 6.10897 5.80187C6.10088 5.82459 6.08043 5.89696 6.10056 6.03431C6.14228 6.319 6.36206 6.89756 7.25437 7.837C8.14944 8.77931 8.69237 9.00144 8.94394 9.04231C9.0525 9.05994 9.10925 9.04463 9.12737 9.03825L9.38275 8.76938C9.92887 8.19438 10.7803 8.08113 11.4669 8.47631L12.6609 9.16356C13.6815 9.751 13.9191 11.188 13.1034 12.0467L12.2156 12.9814C11.9385 13.2732 11.5606 13.5222 11.0937 13.5683C9.95381 13.6808 7.31312 13.5343 4.54475 10.6197C1.96152 7.9 1.47078 5.53446 1.40875 4.37869C1.3781 3.80765 1.63265 3.31784 1.96756 2.96525L2.94856 1.93244ZM4.85056 2.71398C4.53034 2.26108 3.95507 2.23406 3.6283 2.57808L2.6473 3.61089C2.44018 3.82895 2.33151 4.07888 2.3449 4.32845C2.39555 5.27208 2.80192 7.4235 5.22449 9.974C7.76462 12.6483 10.1047 12.7238 11.0016 12.6353C11.179 12.6178 11.3614 12.5194 11.5359 12.3358L12.4237 11.4011C12.8067 10.9978 12.7063 10.2714 12.1932 9.97613L10.9992 9.28881C10.6787 9.10438 10.3034 9.16138 10.0625 9.415L9.77781 9.71469L9.44837 9.40175C9.77781 9.71469 9.77737 9.71513 9.777 9.71563L9.77606 9.7165L9.77425 9.71844L9.77025 9.7225L9.76131 9.73131C9.75487 9.73756 9.74744 9.74438 9.73906 9.75175C9.72225 9.7665 9.70144 9.78331 9.6765 9.801C9.62637 9.8365 9.55968 9.87556 9.47537 9.90881C9.30287 9.97688 9.07506 10.0134 8.79368 9.96769C8.24518 9.87863 7.52637 9.48469 6.57462 8.48263C5.62001 7.47763 5.25466 6.72781 5.17297 6.17021C5.13138 5.88642 5.16466 5.65918 5.22572 5.48757C5.25575 5.40318 5.29121 5.33589 5.32391 5.28479C5.34022 5.25931 5.35576 5.23797 5.3695 5.22061C5.37637 5.21193 5.38279 5.20424 5.38864 5.19752L5.39696 5.18815L5.40078 5.18401L5.40259 5.18206L5.40347 5.18113C5.4039 5.18067 5.40433 5.18022 5.73663 5.49583L5.40434 5.18021L5.5836 4.99148C5.86206 4.69832 5.90252 4.20183 5.63868 3.82866L4.85056 2.71398Z" fill="#1C274C"/>
<path d="M8.28718 1.1749C8.32855 0.919339 8.57012 0.745983 8.82568 0.787352C8.84149 0.790383 8.89243 0.799895 8.91905 0.805833C8.97243 0.817714 9.0468 0.835995 9.13955 0.863014C9.32505 0.917039 9.58418 1.00605 9.89518 1.14863C10.5179 1.4341 11.3465 1.93348 12.2064 2.79335C13.0662 3.65323 13.5656 4.48186 13.8511 5.10453C13.9937 5.41554 14.0827 5.67467 14.1367 5.86016C14.1637 5.95291 14.182 6.02731 14.1939 6.08063C14.1998 6.1073 14.2042 6.12871 14.2072 6.14453L14.2108 6.16403C14.2521 6.41956 14.0804 6.67119 13.8248 6.71256C13.57 6.75381 13.3299 6.58125 13.2876 6.32694C13.2862 6.32006 13.2826 6.30175 13.2788 6.28444C13.2711 6.24981 13.2577 6.19493 13.2366 6.12233C13.1943 5.97712 13.1209 5.76129 12.9989 5.49524C12.7552 4.9638 12.3171 4.22993 11.5434 3.45626C10.7698 2.6826 10.0359 2.24448 9.50449 2.00084C9.23843 1.87886 9.02262 1.80541 8.87737 1.76311C8.8048 1.74196 8.71355 1.72102 8.67893 1.71331C8.42455 1.67092 8.24593 1.42972 8.28718 1.1749Z" fill="#1C274C"/>
<path fill-rule="evenodd" clip-rule="evenodd" d="M8.4288 3.33082C8.49992 3.08189 8.75936 2.93776 9.0083 3.00888L8.87948 3.45959C9.0083 3.00888 9.00805 3.00882 9.0083 3.00888L9.00917 3.00914L9.01011 3.00941L9.01223 3.01002L9.01705 3.01147L9.02942 3.01532C9.03886 3.01834 9.05061 3.02226 9.06467 3.02724C9.09273 3.0372 9.1298 3.05136 9.1753 3.07087C9.26636 3.10989 9.3908 3.17015 9.54361 3.26059C9.84955 3.44165 10.2672 3.74238 10.7577 4.23299C11.2484 4.7236 11.5491 5.14122 11.7302 5.44713C11.8206 5.59995 11.8809 5.72437 11.9199 5.81542C11.9394 5.86093 11.9535 5.89802 11.9635 5.9261C11.9685 5.94013 11.9724 5.9519 11.9754 5.96131L11.9793 5.97368L11.9807 5.97853L11.9814 5.98061L11.9816 5.98157C11.9817 5.9818 11.9819 5.98247 11.5312 6.11125L11.9819 5.98247C12.053 6.2314 11.9089 6.49081 11.6599 6.56194C11.4131 6.6325 11.156 6.49138 11.0823 6.24634L11.08 6.2396C11.0767 6.23021 11.0697 6.21172 11.0582 6.18472C11.035 6.13076 10.9931 6.04249 10.9234 5.92462C10.784 5.68916 10.5323 5.33338 10.0949 4.89591C9.65736 4.45843 9.30161 4.20674 9.06611 4.06739C8.94823 3.99763 8.85998 3.95569 8.80605 3.93256C8.77905 3.92099 8.76055 3.9141 8.75117 3.91076L8.74442 3.90846C8.49936 3.83478 8.3583 3.57762 8.4288 3.33082Z" fill="#1C274C"/>
</svg>
