<svg width="40" height="40" viewBox="0 0 40 40" fill="none" xmlns="http://www.w3.org/2000/svg">
<path d="M3.47344 4.58533C3.70242 3.93407 4.41601 3.59172 5.06729 3.8207L5.56962 3.9973C6.59716 4.35852 7.46989 4.66532 8.15669 5.00232C8.89107 5.36265 9.52082 5.80655 9.99446 6.49965C10.4644 7.18738 10.6585 7.94191 10.748 8.76921C10.7881 9.13955 10.8092 9.54945 10.8204 10H28.5507C31.359 10 33.887 10 34.6268 10.9618C35.3668 11.9236 35.0775 13.3728 34.499 16.2712L33.666 20.3125C33.1408 22.8607 32.8782 24.1347 31.9587 24.884C31.0392 25.6333 29.7383 25.6333 27.1367 25.6333H18.2985C13.6503 25.6333 11.3262 25.6333 9.88222 24.1103C8.43821 22.5872 8.33282 20.9693 8.33282 16.0667V11.7305C8.33282 10.4973 8.33112 9.67193 8.26252 9.03825C8.19697 8.43266 8.08081 8.1303 7.93037 7.91015C7.78361 7.69538 7.56082 7.49466 7.05544 7.2467C6.51737 6.98268 5.78612 6.72343 4.67344 6.33223L4.23809 6.17916C3.58681 5.9502 3.24447 5.23662 3.47344 4.58533Z" fill="#14193C" fill-opacity="0.85"/>
<path d="M12.5 30C13.8807 30 15 31.1193 15 32.5C15 33.8807 13.8807 35 12.5 35C11.1193 35 10 33.8807 10 32.5C10 31.1193 11.1193 30 12.5 30Z" fill="#14193C" fill-opacity="0.85"/>
<path d="M27.5 30.0002C28.8807 30.0002 30 31.1193 30 32.5002C30 33.8808 28.8807 35.0002 27.5 35.0002C26.1193 35.0002 25 33.8808 25 32.5002C25 31.1193 26.1193 30.0002 27.5 30.0002Z" fill="#14193C" fill-opacity="0.85"/>
</svg>
