<svg width="20" height="20" viewBox="0 0 20 20" fill="none" xmlns="http://www.w3.org/2000/svg">
<g clip-path="url(#clip0_501_23)">
<path d="M10.8946 9.99999L13.5946 7.29999C13.6856 7.19371 13.7332 7.057 13.7278 6.91718C13.7224 6.77736 13.6644 6.64473 13.5655 6.54579C13.4666 6.44684 13.3339 6.38888 13.1941 6.38348C13.0543 6.37808 12.9176 6.42564 12.8113 6.51665L10.1113 9.18888L7.39463 6.47221C7.28835 6.3812 7.15164 6.33364 7.01182 6.33904C6.872 6.34444 6.73936 6.4024 6.64042 6.50134C6.54148 6.60028 6.48352 6.73292 6.47812 6.87274C6.47272 7.01256 6.52028 7.14927 6.61129 7.25554L9.3224 9.99999L6.66685 12.6222C6.60869 12.672 6.56146 12.7333 6.52811 12.8022C6.49476 12.8712 6.47603 12.9462 6.47307 13.0227C6.47011 13.0992 6.48301 13.1755 6.51094 13.2468C6.53887 13.3181 6.58123 13.3829 6.63537 13.437C6.68952 13.4912 6.75427 13.5335 6.82556 13.5615C6.89685 13.5894 6.97314 13.6023 7.04965 13.5993C7.12617 13.5964 7.20124 13.5776 7.27016 13.5443C7.33909 13.5109 7.40038 13.4637 7.45018 13.4055L10.1002 10.7555L12.7335 13.3889C12.8398 13.4799 12.9765 13.5275 13.1163 13.522C13.2561 13.5166 13.3888 13.4587 13.4877 13.3597C13.5867 13.2608 13.6446 13.1282 13.65 12.9884C13.6554 12.8485 13.6079 12.7118 13.5168 12.6055L10.8946 9.99999Z" fill="#878787"/>
<path d="M10.0002 18.8889C8.24217 18.8889 6.52359 18.3676 5.06182 17.3909C3.60005 16.4141 2.46074 15.0259 1.78796 13.4016C1.11518 11.7774 0.93915 9.99015 1.28213 8.26587C1.62511 6.5416 2.47169 4.95775 3.71483 3.71461C4.95796 2.47148 6.54181 1.6249 8.26609 1.28192C9.99036 0.938936 11.7776 1.11497 13.4019 1.78774C15.0261 2.46052 16.4143 3.59983 17.3911 5.06161C18.3678 6.52338 18.8891 8.24195 18.8891 10C18.8891 12.3575 17.9526 14.6184 16.2856 16.2854C14.6186 17.9524 12.3577 18.8889 10.0002 18.8889ZM10.0002 2.22223C8.46192 2.22223 6.95817 2.67839 5.67912 3.53302C4.40007 4.38765 3.40317 5.60238 2.81449 7.02358C2.22581 8.44478 2.07178 10.0086 2.37189 11.5174C2.672 13.0261 3.41276 14.412 4.5005 15.4997C5.58824 16.5875 6.97411 17.3282 8.48285 17.6283C9.99159 17.9284 11.5554 17.7744 12.9766 17.1857C14.3979 16.5971 15.6126 15.6002 16.4672 14.3211C17.3218 13.0421 17.778 11.5383 17.778 10C17.778 7.93721 16.9586 5.9589 15.4999 4.50029C14.0413 3.04167 12.063 2.22223 10.0002 2.22223Z" fill="#878787"/>
</g>
<defs>
<clipPath id="clip0_501_23">
<rect width="20" height="20" fill="white"/>
</clipPath>
</defs>
</svg>
