<svg width="48" height="30" viewBox="0 0 48 30" fill="none" xmlns="http://www.w3.org/2000/svg">
<path d="M43.008 0H4.992C2.23499 0 0 2.22432 0 4.96815V25.0318C0 27.7757 2.23499 30 4.992 30H43.008C45.765 30 48 27.7757 48 25.0318V4.96815C48 2.22432 45.765 0 43.008 0Z" fill="#333333"/>
<path d="M24.7109 11.2719H20.4414V18.0585H22.5181V16.2329H24.7092C25.2241 16.2329 25.7257 16.2177 26.2136 16.0619C27.1595 15.7621 27.8612 14.9214 27.8612 13.7808C27.8612 12.6402 27.173 11.8127 26.2422 11.4862C25.7274 11.3003 25.2393 11.2719 24.7092 11.2719H24.7109ZM22.5197 14.6366V12.9115H24.4113C24.8119 12.9115 25.0424 12.9551 25.2275 13.0254C25.5574 13.1544 25.7139 13.4526 25.7139 13.7675C25.7139 14.109 25.527 14.4373 25.1704 14.5511C24.9987 14.6083 24.7983 14.6366 24.4113 14.6366H22.5197Z" fill="white"/>
<path d="M30.8391 15.5779L31.827 12.8412H31.985L32.9729 15.5779H30.8391ZM30.3241 17.0752H33.4762L33.8766 18.0585H36.211L33.4172 11.2719H30.3797L27.5859 18.0585H29.9352L30.3223 17.0752H30.3241Z" fill="white"/>
<path d="M41.2675 11.2719L39.578 14.3652H39.5057L37.8008 11.2719H35.3809L38.4605 16.2612V18.0585H40.6097V16.0903L43.5329 11.2719H41.2675Z" fill="white"/>
<path d="M4.4668 9.25854H16.0048V15.0335C16.0048 16.5141 15.2103 17.8825 13.9229 18.6228L10.2356 20.7414L6.54846 18.6228C5.25937 17.8825 4.4668 16.5141 4.4668 15.0335V9.25854Z" fill="#FFDD2D"/>
<path d="M7.63259 12.2985V14.0939C7.87988 13.816 8.32763 13.6284 8.84091 13.6284H9.39796V15.7169C9.39796 16.2729 9.24648 16.7587 9.02094 17.0266H11.4459C11.2222 16.7587 11.0707 16.2729 11.0707 15.7184V13.6301H11.6277C12.141 13.6301 12.5904 13.8176 12.8361 14.0955V12.3001H7.63086L7.63259 12.2985Z" fill="#333333"/>
</svg>
